<?xml version="1.0" encoding="UTF-8"?>
<svg id="uuid-8f556784-1580-4c2a-a8ed-816af0770054" data-name="uuid-be05fee9-2567-4cec-932a-69795d63e44c" xmlns="http://www.w3.org/2000/svg" viewBox="0 0 36 36">
  <path d="M19.41,18L35.25,2.17c.39-.39,.39-1.02,0-1.41s-1.02-.39-1.41,0l-15.83,15.83L2.17,.75c-.39-.39-1.02-.39-1.41,0s-.39,1.02,0,1.41l15.83,15.83L.75,33.83c-.39,.39-.39,1.02,0,1.41,.2,.2,.45,.29,.71,.29s.51-.1,.71-.29l15.83-15.83,15.83,15.83c.2,.2,.45,.29,.71,.29s.51-.1,.71-.29c.39-.39,.39-1.02,0-1.41l-15.83-15.83Z"/>
</svg>